<svg width="193" height="33" viewBox="0 0 193 33" fill="none" xmlns="http://www.w3.org/2000/svg">
<path d="M45.24 8.016H49.08L52.872 20.208L56.64 8.016H60.216L54.84 24H50.64L45.24 8.016ZM62.3173 8.016H65.7973V24H62.3173V8.016ZM73.5681 24.312C72.6401 24.312 71.7521 24.208 70.9041 24C70.0721 23.792 69.3521 23.512 68.7441 23.16L69.0321 19.944C69.7521 20.392 70.5041 20.744 71.2881 21C72.0881 21.24 72.8241 21.36 73.4961 21.36C74.2641 21.36 74.8881 21.2 75.3681 20.88C75.8481 20.56 76.0881 20.136 76.0881 19.608C76.0881 19.176 75.9281 18.848 75.6081 18.624C75.2881 18.384 74.7841 18.128 74.0961 17.856L73.5201 17.616C73.4401 17.584 73.3521 17.552 73.2561 17.52C73.1601 17.472 73.0481 17.424 72.9201 17.376C72.0241 17.008 71.3041 16.664 70.7601 16.344C70.2161 16.008 69.7441 15.544 69.3441 14.952C68.9601 14.36 68.7681 13.592 68.7681 12.648C68.7681 11.112 69.2881 9.904 70.3281 9.024C71.3681 8.144 72.8161 7.704 74.6721 7.704C76.0801 7.704 77.5201 7.992 78.9921 8.568L78.4641 11.736C77.8721 11.4 77.2321 11.136 76.5441 10.944C75.8721 10.752 75.2321 10.656 74.6241 10.656C73.8721 10.656 73.2881 10.808 72.8721 11.112C72.4561 11.4 72.2481 11.792 72.2481 12.288C72.2481 12.72 72.3921 13.056 72.6801 13.296C72.9681 13.536 73.4321 13.792 74.0721 14.064L75.0561 14.448C75.9841 14.8 76.7521 15.144 77.3601 15.48C77.9681 15.816 78.4881 16.304 78.9201 16.944C79.3521 17.568 79.5681 18.384 79.5681 19.392C79.5681 20.944 79.0401 22.152 77.9841 23.016C76.9281 23.88 75.4561 24.312 73.5681 24.312ZM82.5204 8.016H86.0004V24H82.5204V8.016ZM96.7712 24.312C95.2032 24.312 93.8192 23.968 92.6192 23.28C91.4192 22.592 90.4832 21.624 89.8112 20.376C89.1552 19.128 88.8272 17.696 88.8272 16.08C88.8272 14.448 89.1552 13.008 89.8112 11.76C90.4672 10.512 91.3952 9.544 92.5952 8.856C93.7952 8.168 95.1872 7.824 96.7712 7.824C98.3392 7.824 99.7232 8.168 100.923 8.856C102.123 9.528 103.051 10.48 103.707 11.712C104.363 12.944 104.691 14.368 104.691 15.984C104.691 17.632 104.363 19.088 103.707 20.352C103.051 21.6 102.123 22.576 100.923 23.28C99.7232 23.968 98.3392 24.312 96.7712 24.312ZM96.7712 21.264C98.0832 21.264 99.1312 20.792 99.9152 19.848C100.715 18.904 101.115 17.648 101.115 16.08C101.115 15.056 100.931 14.152 100.563 13.368C100.211 12.568 99.6992 11.96 99.0272 11.544C98.3712 11.112 97.6192 10.896 96.7712 10.896C95.9232 10.896 95.1632 11.112 94.4912 11.544C93.8352 11.96 93.3232 12.568 92.9552 13.368C92.6032 14.152 92.4272 15.056 92.4272 16.08C92.4272 17.104 92.6032 18.008 92.9552 18.792C93.3232 19.576 93.8352 20.184 94.4912 20.616C95.1472 21.048 95.9072 21.264 96.7712 21.264ZM107.336 8.016H111.416L118.04 19.224V8.016H121.232V24H117.2L110.528 12.72V24H107.336V8.016ZM128.81 24.312C127.882 24.312 126.994 24.208 126.146 24C125.314 23.792 124.594 23.512 123.986 23.16L124.274 19.944C124.994 20.392 125.746 20.744 126.53 21C127.33 21.24 128.066 21.36 128.738 21.36C129.506 21.36 130.13 21.2 130.61 20.88C131.09 20.56 131.33 20.136 131.33 19.608C131.33 19.176 131.17 18.848 130.85 18.624C130.53 18.384 130.026 18.128 129.338 17.856L128.762 17.616C128.682 17.584 128.594 17.552 128.498 17.52C128.402 17.472 128.29 17.424 128.162 17.376C127.266 17.008 126.546 16.664 126.002 16.344C125.458 16.008 124.986 15.544 124.586 14.952C124.202 14.36 124.01 13.592 124.01 12.648C124.01 11.112 124.53 9.904 125.57 9.024C126.61 8.144 128.058 7.704 129.914 7.704C131.322 7.704 132.762 7.992 134.234 8.568L133.706 11.736C133.114 11.4 132.474 11.136 131.786 10.944C131.114 10.752 130.474 10.656 129.866 10.656C129.114 10.656 128.53 10.808 128.114 11.112C127.698 11.4 127.49 11.792 127.49 12.288C127.49 12.72 127.634 13.056 127.922 13.296C128.21 13.536 128.674 13.792 129.314 14.064L130.298 14.448C131.226 14.8 131.994 15.144 132.602 15.48C133.21 15.816 133.73 16.304 134.162 16.944C134.594 17.568 134.81 18.384 134.81 19.392C134.81 20.944 134.282 22.152 133.226 23.016C132.17 23.88 130.698 24.312 128.81 24.312ZM140.979 11.04H136.611V8.016H148.803V11.04H144.483V24H140.979V11.04ZM157.826 24.312C156.258 24.312 154.874 23.968 153.674 23.28C152.474 22.592 151.538 21.624 150.866 20.376C150.21 19.128 149.882 17.696 149.882 16.08C149.882 14.448 150.21 13.008 150.866 11.76C151.522 10.512 152.45 9.544 153.65 8.856C154.85 8.168 156.242 7.824 157.826 7.824C159.394 7.824 160.778 8.168 161.978 8.856C163.178 9.528 164.106 10.48 164.762 11.712C165.418 12.944 165.746 14.368 165.746 15.984C165.746 17.632 165.418 19.088 164.762 20.352C164.106 21.6 163.178 22.576 161.978 23.28C160.778 23.968 159.394 24.312 157.826 24.312ZM157.826 21.264C159.138 21.264 160.186 20.792 160.97 19.848C161.77 18.904 162.17 17.648 162.17 16.08C162.17 15.056 161.986 14.152 161.618 13.368C161.266 12.568 160.754 11.96 160.082 11.544C159.426 11.112 158.674 10.896 157.826 10.896C156.978 10.896 156.218 11.112 155.546 11.544C154.89 11.96 154.378 12.568 154.01 13.368C153.658 14.152 153.482 15.056 153.482 16.08C153.482 17.104 153.658 18.008 154.01 18.792C154.378 19.576 154.89 20.184 155.546 20.616C156.202 21.048 156.962 21.264 157.826 21.264ZM168.295 8.016C168.775 8 169.671 7.992 170.983 7.992C172.311 7.992 173.215 8 173.695 8.016C175.519 8.08 176.879 8.528 177.775 9.36C178.671 10.176 179.119 11.28 179.119 12.672C179.119 13.856 178.815 14.864 178.207 15.696C177.615 16.512 176.783 17.048 175.711 17.304C176.047 17.576 176.391 17.952 176.743 18.432C177.095 18.896 177.583 19.624 178.207 20.616C178.863 21.656 179.527 22.784 180.199 24H176.167L173.455 18.96C173.167 18.432 172.903 18.104 172.663 17.976C172.439 17.832 172.095 17.76 171.631 17.76V24H168.295V8.016ZM173.119 15.096C173.935 15.096 174.575 14.888 175.039 14.472C175.519 14.056 175.759 13.496 175.759 12.792C175.759 12.152 175.551 11.664 175.135 11.328C174.719 10.992 174.111 10.824 173.311 10.824H171.631V15.096H173.119ZM181.821 8.016H191.541V11.04H185.253V14.232H190.461V17.16H185.253V20.976H191.541V24H181.821V8.016Z" fill="white"/>
<g clip-path="url(#clip0_19_431)">
<mask id="mask0_19_431" style="mask-type:luminance" maskUnits="userSpaceOnUse" x="7" y="0" width="19" height="10">
<path d="M7.63043 0.0273438H25.4348V9.74698H7.63043V0.0273438Z" fill="white"/>
</mask>
<g mask="url(#mask0_19_431)">
<path d="M25.1776 9.53585L22.5679 0.308992C17.3672 -0.647199 11.789 0.851812 7.76402 4.81799C7.74415 4.83757 7.72428 4.86368 7.69778 4.88326L25.1776 9.53585Z" fill="white"/>
</g>
<mask id="mask1_19_431" style="mask-type:luminance" maskUnits="userSpaceOnUse" x="2" y="5" width="15" height="16">
<path d="M2.89563 5.29102H16.6739V20.886H2.89563V5.29102Z" fill="white"/>
</mask>
<g mask="url(#mask1_19_431)">
<path d="M16.4178 8.01702L7.08066 5.53027C3.23453 9.79778 2.03896 15.5567 3.49395 20.7532L16.4178 8.01702Z" fill="white"/>
</g>
<path d="M35.2389 11.1719C34.4495 8.84939 33.1138 6.66941 31.2415 4.81794C29.0093 2.61838 26.3003 1.1792 23.4444 0.491699L28.379 17.9261L35.2389 11.1719Z" fill="white"/>
<mask id="mask2_19_431" style="mask-type:luminance" maskUnits="userSpaceOnUse" x="22" y="11" width="15" height="17">
<path d="M22.3261 11.9746H36.0337V27.5695H22.3261V11.9746Z" fill="white"/>
</mask>
<g mask="url(#mask2_19_431)">
<path d="M22.5414 24.7913L31.852 27.3172C35.7511 23.0497 36.9665 17.2451 35.4983 12.0225L22.5414 24.7913Z" fill="white"/>
</g>
<mask id="mask3_19_431" style="mask-type:luminance" maskUnits="userSpaceOnUse" x="13" y="23" width="19" height="10">
<path d="M13.5652 23.1138H31.3696V32.68H13.5652V23.1138Z" fill="white"/>
</mask>
<g mask="url(#mask3_19_431)">
<path d="M13.648 23.1943L16.0921 32.4016C21.3855 33.4883 27.1172 32.0089 31.2283 27.9644L13.648 23.1943Z" fill="white"/>
</g>
<path d="M3.76001 21.6042C4.54933 23.9267 5.88509 26.1066 7.75738 27.9581C9.90233 30.0717 12.4867 31.4859 15.2156 32.1995L10.6066 14.8564L3.76001 21.6042Z" fill="white"/>
</g>
<defs>
<clipPath id="clip0_19_431">
<rect width="39" height="33" fill="white"/>
</clipPath>
</defs>
</svg>
