<svg width="34" height="34" viewBox="0 0 34 34" fill="none" xmlns="http://www.w3.org/2000/svg">
<path fill-rule="evenodd" clip-rule="evenodd" d="M4 6.4375C4 6.22201 4.0856 6.01535 4.23798 5.86298C4.39035 5.7106 4.59701 5.625 4.8125 5.625H7.25C7.43124 5.62505 7.60726 5.68569 7.75006 5.79729C7.89287 5.90889 7.99427 6.06502 8.03813 6.24087L8.69625 8.875H27.5625C27.6827 8.87507 27.8013 8.9018 27.9099 8.95325C28.0185 9.0047 28.1143 9.07959 28.1905 9.17254C28.2666 9.26548 28.3212 9.37416 28.3503 9.49075C28.3794 9.60733 28.3823 9.72892 28.3587 9.84675L26.7337 17.9717C26.6982 18.1489 26.6046 18.3092 26.4677 18.4272C26.3309 18.5452 26.1586 18.6143 25.9781 18.6234L10.708 19.3904L11.1744 21.875H25.125C25.3405 21.875 25.5472 21.9606 25.6995 22.113C25.8519 22.2653 25.9375 22.472 25.9375 22.6875C25.9375 22.903 25.8519 23.1097 25.6995 23.262C25.5472 23.4144 25.3405 23.5 25.125 23.5H10.5C10.3106 23.4998 10.1272 23.4335 9.98148 23.3124C9.83579 23.1913 9.73698 23.0232 9.70213 22.837L7.26625 9.86138L6.61625 7.25H4.8125C4.59701 7.25 4.39035 7.1644 4.23798 7.01202C4.0856 6.85965 4 6.65299 4 6.4375ZM9.04075 10.5L10.4057 17.7784L25.2648 17.0325L26.5713 10.5H9.04075ZM12.125 23.5C11.263 23.5 10.4364 23.8424 9.8269 24.4519C9.21741 25.0614 8.875 25.888 8.875 26.75C8.875 27.612 9.21741 28.4386 9.8269 29.0481C10.4364 29.6576 11.263 30 12.125 30C12.987 30 13.8136 29.6576 14.4231 29.0481C15.0326 28.4386 15.375 27.612 15.375 26.75C15.375 25.888 15.0326 25.0614 14.4231 24.4519C13.8136 23.8424 12.987 23.5 12.125 23.5ZM23.5 23.5C22.638 23.5 21.8114 23.8424 21.2019 24.4519C20.5924 25.0614 20.25 25.888 20.25 26.75C20.25 27.612 20.5924 28.4386 21.2019 29.0481C21.8114 29.6576 22.638 30 23.5 30C24.362 30 25.1886 29.6576 25.7981 29.0481C26.4076 28.4386 26.75 27.612 26.75 26.75C26.75 25.888 26.4076 25.0614 25.7981 24.4519C25.1886 23.8424 24.362 23.5 23.5 23.5ZM12.125 25.125C11.694 25.125 11.2807 25.2962 10.976 25.601C10.6712 25.9057 10.5 26.319 10.5 26.75C10.5 27.181 10.6712 27.5943 10.976 27.899C11.2807 28.2038 11.694 28.375 12.125 28.375C12.556 28.375 12.9693 28.2038 13.274 27.899C13.5788 27.5943 13.75 27.181 13.75 26.75C13.75 26.319 13.5788 25.9057 13.274 25.601C12.9693 25.2962 12.556 25.125 12.125 25.125ZM23.5 25.125C23.069 25.125 22.6557 25.2962 22.351 25.601C22.0462 25.9057 21.875 26.319 21.875 26.75C21.875 27.181 22.0462 27.5943 22.351 27.899C22.6557 28.2038 23.069 28.375 23.5 28.375C23.931 28.375 24.3443 28.2038 24.649 27.899C24.9538 27.5943 25.125 27.181 25.125 26.75C25.125 26.319 24.9538 25.9057 24.649 25.601C24.3443 25.2962 23.931 25.125 23.5 25.125Z" fill="white"/>
</svg>
