<svg width="16" height="15" viewBox="0 0 16 15" fill="none" xmlns="http://www.w3.org/2000/svg">
<path d="M7 14.4563C3.15 14.4563 0 11.3063 0 7.4563C0 3.6063 3.15 0.456299 7 0.456299C10.85 0.456299 14 3.6063 14 7.4563C14 11.3063 10.85 14.4563 7 14.4563ZM7 1.3313C3.63125 1.3313 0.875 4.08755 0.875 7.4563C0.875 10.825 3.63125 13.5813 7 13.5813C10.3687 13.5813 13.125 10.825 13.125 7.4563C13.125 4.08755 10.3687 1.3313 7 1.3313Z" fill="black"/>
<path d="M5.68632 10.2564L3.63007 8.20015L4.24257 7.58765L5.68632 9.0314L9.75506 4.96265L10.3676 5.57515L5.68632 10.2564Z" fill="black"/>
</svg>
