<svg width="11" height="11" viewBox="0 0 11 11" fill="none" xmlns="http://www.w3.org/2000/svg">
<mask id="mask0_104_167" style="mask-type:alpha" maskUnits="userSpaceOnUse" x="0" y="0" width="11" height="11">
<rect x="0.259827" y="0.751953" width="10" height="10" fill="#D9D9D9"/>
</mask>
<g mask="url(#mask0_104_167)">
<path d="M5.24943 6.78842L8.31193 3.72592C8.4161 3.62175 8.53936 3.5714 8.68172 3.57488C8.82408 3.57835 8.94735 3.63217 9.05151 3.73633C9.15568 3.8405 9.20776 3.96376 9.20776 4.10613C9.20776 4.24849 9.15568 4.37175 9.05151 4.47592L5.84318 7.67383C5.75985 7.75717 5.6661 7.81967 5.56193 7.86133C5.45776 7.903 5.3536 7.92383 5.24943 7.92383C5.14526 7.92383 5.0411 7.903 4.93693 7.86133C4.83276 7.81967 4.73901 7.75717 4.65568 7.67383L1.44735 4.4655C1.34318 4.36133 1.29283 4.23981 1.29631 4.10092C1.29978 3.96203 1.3536 3.8405 1.45776 3.73633C1.56193 3.63217 1.68519 3.58008 1.82756 3.58008C1.96992 3.58008 2.09318 3.63217 2.19735 3.73633L5.24943 6.78842Z" fill="white"/>
</g>
</svg>
